<svg id="Layer_1" enable-background="new 0 0 512 512" height="512" viewBox="0 0 512 512" width="512" xmlns="http://www.w3.org/2000/svg"><g><path d="m328 512c-101.62 0-184-82.38-184-184v-208c0-12.82 4.99-24.88 14.06-33.94 9.06-9.07 21.12-14.06 33.94-14.06 5.71 0 11.19 1 16.27 2.84 1.16-10.87 5.95-20.95 13.79-28.78.63-.63 1.28-1.25 1.94-1.83 8.81-7.91 20.07-12.23 32-12.23 5.61 0 10.99.97 16 2.74.56.2 1.12.41 1.67.63 2.16-7.99 6.38-15.31 12.39-21.31 5.15-5.15 11.26-8.99 17.94-11.34 5.07-1.79 10.46-2.72 16-2.72 12.28 0 23.5 4.64 32 12.26 3.23 2.9 6.08 6.23 8.43 9.9 7.362-4.162 15.752-6.309 24.461-6.152 26.295.474 47.109 22.509 47.109 48.808v75.344c9.36-6.28 20.25-10.41 32-11.72 2.593-.287 5.235-.437 7.917-.44 22.044-.025 40.083 18.049 40.083 40.093v159.907c0 101.62-82.38 184-184 184z" fill="#f8e9d2"/><path d="m157.26 370.74c-4.095 0-8.189-1.562-11.313-4.687-6.249-6.248-6.249-16.379 0-22.627l22.62-22.62c6.249-6.249 16.379-6.249 22.627 0 6.249 6.248 6.249 16.379 0 22.627l-22.62 22.62c-3.125 3.125-7.22 4.687-11.314 4.687z" fill="#98d7ce"/><path d="m44.12 483.88c-4.095 0-8.189-1.562-11.313-4.687-6.249-6.248-6.249-16.379 0-22.627l22.62-22.62c6.249-6.249 16.379-6.249 22.627 0 6.249 6.248 6.249 16.379 0 22.627l-22.62 22.62c-3.124 3.125-7.219 4.687-11.314 4.687z" fill="#98d7ce"/><path d="m179.88 483.88c-4.095 0-8.189-1.562-11.314-4.687l-22.62-22.62c-6.249-6.249-6.249-16.379 0-22.627 6.248-6.249 16.378-6.249 22.627 0l22.62 22.62c6.249 6.249 6.249 16.379 0 22.627-3.124 3.125-7.218 4.687-11.313 4.687z" fill="#98d7ce"/><path d="m66.74 370.74c-4.095 0-8.189-1.562-11.314-4.687l-22.62-22.62c-6.249-6.249-6.249-16.379 0-22.627 6.248-6.249 16.378-6.249 22.627 0l22.62 22.62c6.249 6.249 6.249 16.379 0 22.627-3.123 3.125-7.218 4.687-11.313 4.687z" fill="#98d7ce"/><path d="m32 400c0 38.63 27.53 70.96 64 78.39 5.17 1.06 10.52 1.61 16 1.61 44.11 0 80-35.89 80-80s-35.89-80-80-80c-5.48 0-10.83.55-16 1.61-36.47 7.43-64 39.76-64 78.39z" fill="#acebe2"/><g fill="#98d7ce"><path d="m192 400c0 44.11-35.89 80-80 80-5.48 0-10.83-.55-16-1.61 36.47-7.43 64-39.76 64-78.39s-27.53-70.96-64-78.39c5.17-1.06 10.52-1.61 16-1.61 44.11 0 80 35.89 80 80z"/><path d="m112 368c-8.836 0-16-7.164-16-16v-48c0-8.836 7.164-16 16-16s16 7.164 16 16v48c0 8.836-7.164 16-16 16z"/><path d="m112 512c-8.836 0-16-7.164-16-16v-48c0-8.836 7.164-16 16-16s16 7.164 16 16v48c0 8.836-7.164 16-16 16z"/><path d="m208 416h-48c-8.836 0-16-7.164-16-16s7.164-16 16-16h48c8.836 0 16 7.164 16 16s-7.164 16-16 16z"/><path d="m64 416h-48c-8.836 0-16-7.164-16-16s7.164-16 16-16h48c8.836 0 16 7.164 16 16s-7.164 16-16 16z"/></g><path d="m224 44.23v179.77c0 8.84-7.16 16-16 16s-16-7.16-16-16v-152c5.71 0 11.19 1 16.27 2.84 1.16-10.87 5.95-20.95 13.79-28.78.63-.63 1.28-1.25 1.94-1.83z" fill="#e4d5c1"/><path d="m464 128.44v159.56c0 8.84-7.16 16-16 16-47.77 0-88.15 34.2-96 81.32l-.22 1.31c-1.3 7.83-8.08 13.37-15.76 13.37-.88 0-1.76-.07-2.65-.22-8.72-1.45-14.61-9.7-13.15-18.41l.22-1.31c5.02-30.16 20.64-57.65 43.97-77.41 19.23-16.29 42.78-26.54 67.59-29.65v-132.84c9.36-6.28 20.25-10.41 32-11.72z" fill="#e4d5c1"/><path d="m304 2.72v221.28c0 8.84-7.16 16-16 16s-16-7.16-16-16v-189.26c.56.2 1.12.41 1.67.63 2.16-7.99 6.38-15.31 12.39-21.31 5.15-5.15 11.26-8.99 17.94-11.34z" fill="#e4d5c1"/><path d="m384 16v208c0 8.84-7.16 16-16 16s-16-7.16-16-16v-211.74c3.23 2.9 6.08 6.23 8.43 9.9 7.11-4.02 15.18-6.16 23.57-6.16z" fill="#e4d5c1"/></g></svg>